<mxfile host="app.diagrams.net" modified="2022-12-09T03:03:30.568Z" agent="5.0 (Macintosh; Intel Mac OS X 10_15_7) AppleWebKit/537.36 (KHTML, like Gecko) Chrome/108.0.0.0 Safari/537.36" etag="FYEZWavN6VuRTHmXMHzg" version="20.6.2" type="github">
  <diagram id="hXgw41Y6N_ScZ9YnMxp0" name="第 1 页">
    <mxGraphModel dx="962" dy="658" grid="1" gridSize="10" guides="1" tooltips="1" connect="1" arrows="1" fold="1" page="1" pageScale="1" pageWidth="827" pageHeight="1169" math="0" shadow="0">
      <root>
        <mxCell id="0" />
        <mxCell id="1" parent="0" />
      </root>
    </mxGraphModel>
  </diagram>
</mxfile>
